<svg xmlns:dc="http://purl.org/dc/elements/1.1/" xmlns:cc="http://creativecommons.org/ns#" xmlns:rdf="http://www.w3.org/1999/02/22-rdf-syntax-ns#" xmlns:svg="http://www.w3.org/2000/svg" xmlns="http://www.w3.org/2000/svg" xml:space="preserve" height="445" width="550" version="1.1" style=""><rect id="backgroundrect" width="100%" height="100%" x="0" y="0" fill="none" stroke="none"/><metadata id="metadata42"><rdf:RDF><cc:Work rdf:about=""><dc:format>image/svg+xml</dc:format><dc:type rdf:resource="http://purl.org/dc/dcmitype/StillImage"/></cc:Work></rdf:RDF></metadata><defs id="defs4"><style id="style2" type="text/css">@import url("https://fonts.googleapis.com/css2?family=Alegreya+Sans:wght@400");</style></defs><defs id="defs6"/><g class="currentLayer" style=""><title>Layer 1</title><g id="container-filled" class=""><linearGradient y2="140.4342803955078" x2="0" y1="0" x1="0" gradientTransform="matrix(1 0 0 1 -70.22 -70.22)" gradientUnits="userSpaceOnUse" id="SVGID_14" transform="translate(141.09588623046875,2.0547945499420166) matrix(1,0,0,1,139.24,222.5) " stroke-width="0"><stop id="stop8" style="stop-color:rgb(158,158,158);stop-opacity: 1" offset="0%"/></linearGradient><circle id="circle11" r="70.2171401977539" cy="2.0547945499420166" cx="141.09588623046875" style="stroke: none; stroke-width: 1; stroke-dasharray: none; stroke-linecap: butt; stroke-dashoffset: 0; stroke-linejoin: miter; stroke-miterlimit: 4; fill: #000000; fill-rule: nonzero; opacity: 1;" transform="matrix(1,0,0,1,139.24,222.5) " stroke-width="0"/></g><g id="icon" class=""><g id="g27" style="" stroke-width="0"><g id="icon_piece" stroke-width="0"><linearGradient y2="331.3269958496094" x2="303.8739929199219" y1="0" x1="0" gradientTransform="matrix(1 0 0 1 10.09 35.1)" gradientUnits="userSpaceOnUse" id="SVGID_9" transform="translate(141.09588623046875,2.0547945499420166) matrix(0.23,0,0,0.23,117.6269,209.7971) " stroke-width="0"><stop id="stop14" style="stop-color:rgb(245,245,245);stop-opacity: 1" offset="0%"/></linearGradient><path id="path17" stroke-linecap="round" d="m290.2173765112305,226.72783356727598 l-5.975630000000001,3.45 l-17.25,-29.87792 l8.963560000000001,-5.175 l3.45,5.975630000000001 l5.9754000000000005,-3.45 l-13.8,-23.90229 l-47.80458,27.6 l13.8,23.90229 l5.9754000000000005,-3.45 l-3.45,-5.975630000000001 l8.96333,-5.175 l17.25,29.87792 l-5.975630000000001,3.45 l3.45,5.975630000000001 l29.87792,-17.25 zm-17.92666,10.35 l-20.7,-35.85355 l-14.93896,8.625 l-3.45,-5.975630000000001 l35.85355,-20.7 l3.45,5.975630000000001 l-14.93896,8.625 l20.7,35.85355 z" style="stroke: none; stroke-width: 1; stroke-dasharray: none; stroke-linecap: butt; stroke-dashoffset: 0; stroke-linejoin: miter; stroke-miterlimit: 4; fill: #ffffff; fill-rule: nonzero; opacity: 1;" stroke-width="0"/></g><g id="g25" stroke-width="0"><linearGradient y2="180" x2="512" y1="0" x1="0" gradientTransform="matrix(1 0 0 1 0 296.9)" gradientUnits="userSpaceOnUse" id="SVGID_10" transform="translate(141.09588623046875,2.0547945499420166) matrix(0.23,0,0,0.23,139.24,252.607) " stroke-width="0"><stop id="stop20" style="stop-color:rgb(245,245,245);stop-opacity: 1" offset="0%"/></linearGradient><path id="path23" stroke-linecap="round" d="m314.83588623046876,233.96133595375062 c-4.3787400000000005,0 -8.668470000000001,1.18496 -12.405740000000002,3.4263100000000004 l-47.73742,28.62994 c-2.66547,1.5987300000000002 -5.72792,2.44375 -8.856840000000002,2.44375 c-9.63861,0 -17.48,-7.738350000000001 -17.48,-17.25 h-6.9 c0,13.31631 10.93673,24.150000000000002 24.380000000000003,24.150000000000002 c4.3787400000000005,0 8.668470000000001,-1.18496 12.405740000000002,-3.4263100000000004 l47.73742,-28.62994 c2.66547,-1.5987300000000002 5.72792,-2.44375 8.856840000000002,-2.44375 c9.63861,0 17.48,7.738350000000001 17.48,17.25 h6.9 c0,-13.31631 -10.93673,-24.150000000000002 -24.380000000000003,-24.150000000000002 z" style="stroke: none; stroke-width: 1; stroke-dasharray: none; stroke-linecap: butt; stroke-dashoffset: 0; stroke-linejoin: miter; stroke-miterlimit: 4; fill: #ffffff; fill-rule: nonzero; opacity: 1;" stroke-width="0"/></g></g></g></g></svg>