<?xml version="1.0" encoding="UTF-8" standalone="no"?>
<svg
   xmlns:dc="http://purl.org/dc/elements/1.1/"
   xmlns:cc="http://creativecommons.org/ns#"
   xmlns:rdf="http://www.w3.org/1999/02/22-rdf-syntax-ns#"
   xmlns:svg="http://www.w3.org/2000/svg"
   xmlns="http://www.w3.org/2000/svg"
   id="svg38"
   xml:space="preserve"
   viewBox="0 0 550 445"
   height="445"
   width="550"
   version="1.1"><metadata
     id="metadata42"><rdf:RDF><cc:Work
         rdf:about=""><dc:format>image/svg+xml</dc:format><dc:type
           rdf:resource="http://purl.org/dc/dcmitype/StillImage" /></cc:Work></rdf:RDF></metadata><defs
     id="defs4"><style
       id="style2"
       type="text/css">@import url(&quot;https://fonts.googleapis.com/css2?family=Alegreya+Sans:wght@400&quot;);</style></defs><defs
     id="defs6" /><g
     id="container-filled"
     transform="matrix(1 0 0 1 139.24 222.5)"><linearGradient
       y2="140.4342857142857"
       x2="0"
       y1="0"
       x1="0"
       gradientTransform="matrix(1 0 0 1 -70.22 -70.22)"
       gradientUnits="userSpaceOnUse"
       id="SVGID_14"><stop
         id="stop8"
         style="stop-color:rgb(158,158,158);stop-opacity: 1"
         offset="0%" /></linearGradient><circle
       id="circle11"
       r="70.21714285714285"
       cy="0"
       cx="0"
       style="stroke: none; stroke-width: 1; stroke-dasharray: none; stroke-linecap: butt; stroke-dashoffset: 0; stroke-linejoin: miter; stroke-miterlimit: 4; fill: #000000; fill-rule: nonzero; opacity: 1;" /></g><g
     id="icon"
     transform="matrix(0.23 0 0 0.23 139.24 222.5)"><g
       id="g27"
       style=""><g
         id="icon_piece"
         transform="matrix(1 0 0 1 -93.97 -55.23)"><linearGradient
           y2="331.327"
           x2="303.87399999999997"
           y1="0"
           x1="0"
           gradientTransform="matrix(1 0 0 1 10.09 35.1)"
           gradientUnits="userSpaceOnUse"
           id="SVGID_9"><stop
             id="stop14"
             style="stop-color:rgb(245,245,245);stop-opacity: 1"
             offset="0%" /></linearGradient><path
           id="path17"
           stroke-linecap="round"
           d="m 298.963 265.448 l -25.981 15 l -75 -129.904 l 38.972 -22.5 l 15 25.981 l 25.98 -15 l -60 -103.923 l -207.846 120 l 60 103.923 l 25.98 -15 l -15 -25.981 l 38.971 -22.5 l 75 129.904 l -25.981 15 l 15 25.981 l 129.904 -75 z m -77.942 45 l -90 -155.885 l -64.952 37.5 l -15 -25.981 l 155.885 -90 l 15 25.981 l -64.952 37.5 l 90 155.885 z"
           transform=" translate(-162.03, -200.77)"
           style="stroke: none; stroke-width: 1; stroke-dasharray: none; stroke-linecap: butt; stroke-dashoffset: 0; stroke-linejoin: miter; stroke-miterlimit: 4; fill: #ffffff; fill-rule: nonzero; opacity: 1;" /></g><g
         id="g25"
         transform="matrix(1 0 0 1 0 130.9)"><linearGradient
           y2="180"
           x2="511.99999999999994"
           y1="0"
           x1="0"
           gradientTransform="matrix(1 0 0 1 0 296.9)"
           gradientUnits="userSpaceOnUse"
           id="SVGID_10"><stop
             id="stop20"
             style="stop-color:rgb(245,245,245);stop-opacity: 1"
             offset="0%" /></linearGradient><path
           id="path23"
           stroke-linecap="round"
           d="m 406 296.898 c -19.038 0 -37.689 5.152 -53.938 14.897 l -207.554 124.478 c -11.589 6.951 -24.904 10.625 -38.508 10.625 c -41.907 0 -76 -33.645 -76 -75 h -30 c 0 57.897 47.551 105 106 105 c 19.038 0 37.689 -5.152 53.938 -14.897 l 207.554 -124.478 c 11.589 -6.951 24.904 -10.625 38.508 -10.625 c 41.907 0 76 33.645 76 75 h 30 c 0 -57.897 -47.551 -105 -106 -105 z"
           transform=" translate(-256, -386.9)"
           style="stroke: none; stroke-width: 1; stroke-dasharray: none; stroke-linecap: butt; stroke-dashoffset: 0; stroke-linejoin: miter; stroke-miterlimit: 4; fill: #ffffff; fill-rule: nonzero; opacity: 1;" /></g></g></g><g
     id="logo-name"
     style=""
     transform="matrix(1.87 0 0 1.87 346.95 223.44)"><linearGradient
       y2="33.89999999999999"
       x2="0"
       y1="0"
       x1="0"
       gradientTransform="matrix(1 0 0 1 -65.91 -16.95)"
       gradientUnits="userSpaceOnUse"
       id="SVGID_13"><stop
         id="stop30"
         style="stop-color:rgb(97,97,97);stop-opacity: 1"
         offset="0%" /></linearGradient><text
       id="text35"
       style="stroke: none; stroke-width: 1; stroke-dasharray: none; stroke-linecap: butt; stroke-dashoffset: 0; stroke-linejoin: miter; stroke-miterlimit: 4; fill: #000000; fill-rule: nonzero; opacity: 1; white-space: pre;"
       font-weight="normal"
       font-style="normal"
       font-size="30"
       font-family="Alegreya Sans"
       xml:space="preserve"><tspan
         id="tspan33"
         y="9.42"
         x="-65.91">Text Editor</tspan></text>
</g></svg>